<svg version="1.1" id="Layer_1" xmlns="http://www.w3.org/2000/svg" xmlns:xlink="http://www.w3.org/1999/xlink" x="0px" y="0px"
	 width="100%" viewBox="0 0 328 328" enable-background="new 0 0 328 328" xml:space="preserve">
<path fill="#1C1D1F" opacity="1.000000" stroke="none" 
	d="
M221.000000,329.000000 
	C147.333344,329.000000 74.166695,329.000000 1.000029,329.000000 
	C1.000020,219.666702 1.000020,110.333397 1.000010,1.000073 
	C110.333282,1.000049 219.666565,1.000049 328.999878,1.000025 
	C328.999939,110.333260 328.999939,219.666519 328.999969,328.999878 
	C293.166656,329.000000 257.333344,329.000000 221.000000,329.000000 
M242.236130,264.118317 
	C246.725861,263.751190 245.078171,260.233032 245.081970,257.992493 
	C245.172974,204.326355 245.153046,150.660019 245.153198,96.993729 
	C245.153244,84.817009 245.144958,85.088661 233.222076,84.728920 
	C228.058655,84.573135 226.862442,86.177391 226.881241,91.179817 
	C227.067932,140.845444 226.938980,190.512222 227.087006,240.178101 
	C227.100449,244.689468 225.961441,246.124176 221.281143,246.098129 
	C186.615784,245.905334 151.948868,245.996796 117.282440,245.983246 
	C115.619041,245.982590 113.941025,245.946762 112.295197,245.732407 
	C107.949356,245.166428 104.778427,242.927261 103.557228,238.626419 
	C102.297356,234.189316 103.312576,229.997681 107.336632,227.660828 
	C110.841934,225.625198 114.853310,224.152496 118.827461,223.283112 
	C143.571609,217.870163 168.350693,212.611481 193.165344,207.531967 
	C197.108643,206.724777 198.611389,205.423828 198.595413,201.106812 
	C198.421646,154.107773 198.490768,107.107849 198.471436,60.108177 
	C198.470734,58.392708 198.241241,56.677334 198.099106,54.692955 
	C167.867416,60.847313 138.302643,66.626129 108.856644,72.957375 
	C93.185181,76.326935 84.968300,86.872650 84.913254,103.009781 
	C84.764313,146.675629 84.810265,190.342438 84.917732,234.008530 
	C84.934288,240.736404 86.295914,247.239136 90.786232,252.705475 
	C97.805161,261.250031 107.028961,264.224762 117.779053,264.196045 
	C158.945145,264.086090 200.111694,264.146606 242.236130,264.118317 
z"/>
<path fill="#2DA9BA" opacity="1.000000" stroke="none" 
	d="
M241.757095,264.130920 
	C200.111694,264.146606 158.945145,264.086090 117.779053,264.196045 
	C107.028961,264.224762 97.805161,261.250031 90.786232,252.705475 
	C86.295914,247.239136 84.934288,240.736404 84.917732,234.008530 
	C84.810265,190.342438 84.764313,146.675629 84.913254,103.009781 
	C84.968300,86.872650 93.185181,76.326935 108.856644,72.957375 
	C138.302643,66.626129 167.867416,60.847313 198.099106,54.692955 
	C198.241241,56.677334 198.470734,58.392708 198.471436,60.108177 
	C198.490768,107.107849 198.421646,154.107773 198.595413,201.106812 
	C198.611389,205.423828 197.108643,206.724777 193.165344,207.531967 
	C168.350693,212.611481 143.571609,217.870163 118.827461,223.283112 
	C114.853310,224.152496 110.841934,225.625198 107.336632,227.660828 
	C103.312576,229.997681 102.297356,234.189316 103.557228,238.626419 
	C104.778427,242.927261 107.949356,245.166428 112.295197,245.732407 
	C113.941025,245.946762 115.619041,245.982590 117.282440,245.983246 
	C151.948868,245.996796 186.615784,245.905334 221.281143,246.098129 
	C225.961441,246.124176 227.100449,244.689468 227.087006,240.178101 
	C226.938980,190.512222 227.067932,140.845444 226.881241,91.179817 
	C226.862442,86.177391 228.058655,84.573135 233.222076,84.728920 
	C245.144958,85.088661 245.153244,84.817009 245.153198,96.993729 
	C245.153046,150.660019 245.172974,204.326355 245.081970,257.992493 
	C245.078171,260.233032 246.725861,263.751190 241.757095,264.130920 
M135.048248,106.500351 
	C135.048248,138.192505 135.048248,169.884674 135.048248,201.631668 
	C136.929138,201.631668 137.950058,201.810669 138.886200,201.604584 
	C151.228790,198.887390 163.525681,195.948364 175.912521,193.454910 
	C179.901871,192.651855 180.801361,190.839203 180.786804,187.053009 
	C180.653122,152.268997 180.711807,117.484268 180.696747,82.699753 
	C180.695984,80.931953 180.533295,79.164223 180.455856,77.596275 
	C179.604172,77.319870 179.265778,77.082283 178.984116,77.136971 
	C165.116211,79.829666 151.239349,82.482033 137.418442,85.399185 
	C136.421082,85.609688 135.223770,87.741837 135.164352,89.028763 
	C134.911285,94.509506 135.051575,100.008423 135.048248,106.500351 
M102.992439,149.500000 
	C102.992439,169.515320 102.992439,189.530640 102.992439,209.991760 
	C106.650818,208.886719 109.286339,207.715454 112.029701,207.346924 
	C116.531433,206.742142 117.342537,204.285538 117.325127,200.169174 
	C117.178009,165.377090 117.247047,130.584137 117.224670,95.791458 
	C117.223450,93.893295 116.986122,91.995277 116.859940,90.115662 
	C107.300827,90.639572 103.044006,94.894264 103.010857,103.552567 
	C102.953484,118.534851 102.993355,133.517502 102.992439,149.500000 
z"/>
<path fill="#1C1F21" opacity="1.000000" stroke="none" 
	d="
M135.048248,106.000526 
	C135.051575,100.008423 134.911285,94.509506 135.164352,89.028763 
	C135.223770,87.741837 136.421082,85.609688 137.418442,85.399185 
	C151.239349,82.482033 165.116211,79.829666 178.984116,77.136971 
	C179.265778,77.082283 179.604172,77.319870 180.455856,77.596275 
	C180.533295,79.164223 180.695984,80.931953 180.696747,82.699753 
	C180.711807,117.484268 180.653122,152.268997 180.786804,187.053009 
	C180.801361,190.839203 179.901871,192.651855 175.912521,193.454910 
	C163.525681,195.948364 151.228790,198.887390 138.886200,201.604584 
	C137.950058,201.810669 136.929138,201.631668 135.048248,201.631668 
	C135.048248,169.884674 135.048248,138.192505 135.048248,106.000526 
z"/>
<path fill="#1C2022" opacity="1.000000" stroke="none" 
	d="
M102.992439,149.000000 
	C102.993355,133.517502 102.953484,118.534851 103.010857,103.552567 
	C103.044006,94.894264 107.300827,90.639572 116.859940,90.115662 
	C116.986122,91.995277 117.223450,93.893295 117.224670,95.791458 
	C117.247047,130.584137 117.178009,165.377090 117.325127,200.169174 
	C117.342537,204.285538 116.531433,206.742142 112.029701,207.346924 
	C109.286339,207.715454 106.650818,208.886719 102.992439,209.991760 
	C102.992439,189.530640 102.992439,169.515320 102.992439,149.000000 
z"/>
</svg>