<svg xmlns="http://www.w3.org/2000/svg" height="48" viewBox="0 -960 960 960" width="48"><path d="M246-295q53.566 0 104.283 13T450-245v-431.255Q405-705 352.381-721.5 299.763-738 246-738q-38 0-75.5 9.5T96-704.863V-267q32-14 71.829-21 39.828-7 78.171-7Zm269 50q50.017-24 97.271-37 47.255-13 101.523-13Q752-295 793-289t71 17v-432.102Q830-722 791.178-730q-38.823-8-77.384-8-54.268 0-104.031 16.5Q560-705 515-676.255V-245Zm-33 97q-50.564-39.05-111.055-60.025Q310.455-229 246-229q-38.829 0-75.415 10Q134-209 98-195q-22.8 11-44.9-2.5Q31-211 31-238v-477.312Q31-730 38-742.5 45-755 59-762q44.383-21 91.02-31 46.637-10 96.019-10Q309-803 369.5-785.5T482-734q52-34 110.515-51.5T714-803q49.158 0 95.579 10.5Q856-782 900-762q14 7 21.5 19.5T929-715v477q0 27.894-23.15 42.447Q882.7-181 861-195q-35-15-71.682-24.5-36.683-9.5-75.613-9.5Q651-229 592-207.525T482-148ZM273-485Z"/></svg>